<?xml version="1.0" standalone="no"?>
<!DOCTYPE svg PUBLIC "-//W3C//DTD SVG 1.1//EN" "http://www.w3.org/Graphics/SVG/1.1/DTD/svg11.dtd" >
<svg xmlns="http://www.w3.org/2000/svg">
<metadata>Generated by IcoMoon</metadata>
<defs>
<font id="id4md" horiz-adv-x="1024">
<font-face units-per-em="1024" ascent="960" descent="-64" />
<missing-glyph horiz-adv-x="1024" />
<glyph unicode="&#x20;" horiz-adv-x="512" d="" />
<glyph unicode="&#xe900;" glyph-name="right-l" d="M348.16 89.6c-0.035 0-0.077 0-0.119 0-11.311 0-20.48 9.169-20.48 20.48 0 5.685 2.316 10.829 6.057 14.54l313.345 313.141-313.344 313.139c-3.061 3.558-4.925 8.222-4.925 13.321 0 11.311 9.169 20.48 20.48 20.48 5.099 0 9.764-1.864 13.348-4.947l327.653-327.657c3.68-3.702 5.955-8.804 5.955-14.438s-2.275-10.737-5.956-14.439l-327.679-327.679c-3.68-3.651-8.741-5.915-14.331-5.939z" />
<glyph unicode="&#xe901;" glyph-name="rigth-s" d="M384 166.4c-0.044 0-0.097 0-0.149 0-14.138 0-25.6 11.462-25.6 25.6 0 7.106 2.896 13.536 7.571 18.175l238.082 237.826-237.824 237.824c-3.826 4.447-6.156 10.277-6.156 16.652 0 14.138 11.462 25.6 25.6 25.6 6.374 0 12.204-2.33 16.685-6.184l255.966-255.972c4.601-4.627 7.444-11.006 7.444-18.048s-2.844-13.421-7.445-18.049l-255.999-255.999c-4.625-4.589-10.995-7.424-18.028-7.424-0.052 0-0.104 0-0.156 0z" />
<glyph unicode="&#xe902;" glyph-name="sandwich" d="M860.16 673.28h-696.32c-11.311 0-20.48 9.169-20.48 20.48s9.169 20.48 20.48 20.48h696.32c11.311 0 20.48-9.169 20.48-20.48s-9.169-20.48-20.48-20.48zM860.16 427.52h-696.32c-11.311 0-20.48 9.169-20.48 20.48s9.169 20.48 20.48 20.48h696.32c11.311 0 20.48-9.169 20.48-20.48s-9.169-20.48-20.48-20.48zM860.16 181.76h-696.32c-11.311 0-20.48 9.169-20.48 20.48s9.169 20.48 20.48 20.48h696.32c11.311 0 20.48-9.169 20.48-20.48s-9.169-20.48-20.48-20.48z" />
<glyph unicode="&#xe903;" glyph-name="search-l" d="M915.661 73.421l-239.821 240.026c51.008 57.664 82.153 133.929 82.153 217.469 0 181.651-147.257 328.909-328.909 328.909s-328.909-147.257-328.909-328.909c0-181.651 147.257-328.909 328.909-328.909 83.54 0 159.805 31.145 217.819 82.457l239.676-240.124c3.721-3.721 8.862-6.023 14.541-6.023 11.357 0 20.564 9.207 20.564 20.564 0 5.679-2.302 10.819-6.023 14.541zM430.080 243.2c-158.351 0-286.72 128.369-286.72 286.72s128.369 286.72 286.72 286.72c158.351 0 286.72-128.369 286.72-286.72s-128.369-286.72-286.72-286.72z" />
<glyph unicode="&#xe904;" glyph-name="search-s" d="M888.576 107.776l-218.88 218.88c45.193 53.151 72.68 122.578 72.68 198.424 0 169.662-137.538 307.2-307.2 307.2s-307.2-137.538-307.2-307.2c0-169.662 137.538-307.2 307.2-307.2 75.847 0 145.273 27.487 198.862 73.043l218.442-219.243c4.447-3.826 10.277-6.156 16.652-6.156 14.138 0 25.6 11.462 25.6 25.6 0 6.374-2.33 12.204-6.184 16.685zM179.2 524.8c0 141.385 114.615 256 256 256s256-114.615 256-256c0-141.385-114.615-256-256-256s-256 114.615-256 256z" />
<glyph unicode="&#xe905;" glyph-name="send" d="M634.88 28.16c-2.144-0.945-4.643-1.494-7.27-1.494s-5.127 0.55-7.389 1.541l-178.058 174.034h-134.963c-11.264 0-20.48 19.456-20.48 30.72v134.963l-178.381 178.176c-3.687 3.703-5.967 8.81-5.967 14.45 0 8.899 5.676 16.473 13.606 19.298l778.383 266.284c1.978 0.7 4.259 1.104 6.634 1.104 11.311 0 20.48-9.169 20.48-20.48 0-2.375-0.404-4.656-1.148-6.777l-266.196-778.096c-2.328-6.655-7.81-11.663-14.606-13.284zM327.68 243.2h122.88c2.144 0.945 4.643 1.494 7.27 1.494s5.127-0.55 7.389-1.541l161.059-158.469 241.869 707.994-707.584-242.278 161.178-160.768c3.605-3.633 5.858-8.611 5.939-14.116v-132.316z" />
<glyph unicode="&#xe906;" glyph-name="signin-l" d="M690.381 462.541l-225.28 225.28c-3.558 3.061-8.222 4.925-13.321 4.925-11.311 0-20.48-9.169-20.48-20.48 0-5.099 1.864-9.764 4.947-13.348l190.237-190.437h-442.163c-11.311 0-20.48-9.169-20.48-20.48s9.169-20.48 20.48-20.48h442.163l-190.259-190.259c-4.393-3.779-7.159-9.344-7.159-15.555 0-11.311 9.169-20.48 20.48-20.48 6.211 0 11.777 2.765 15.533 7.132l225.303 225.307c3.68 3.702 5.955 8.804 5.955 14.438s-2.275 10.737-5.956 14.439zM348.16 837.12h491.52c11.311 0 20.48-9.169 20.48-20.48v-737.28c0-11.311-9.169-20.48-20.48-20.48h-491.52c-11.311 0-20.48 9.169-20.48 20.48s9.169 20.48 20.48 20.48h471.040v696.32h-471.040c-11.311 0-20.48 9.169-20.48 20.48s9.169 20.48 20.48 20.48z" />
<glyph unicode="&#xe907;" glyph-name="signin-s" d="M606.976 466.176l-204.8 204.8c-4.447 3.826-10.277 6.156-16.652 6.156-14.138 0-25.6-11.462-25.6-25.6 0-6.374 2.33-12.204 6.184-16.685l160.996-161.246h-373.504c-14.138 0-25.6-11.462-25.6-25.6s11.462-25.6 25.6-25.6h373.504l-161.024-161.024c-5.492-4.723-8.948-11.68-8.948-19.444 0-14.138 11.462-25.6 25.6-25.6 7.764 0 14.721 3.456 19.416 8.915l204.828 204.834c4.601 4.627 7.444 11.006 7.444 18.048s-2.844 13.421-7.445 18.049zM332.8 832h435.2c14.138 0 25.6-11.462 25.6-25.6v-716.8c0-14.138-11.462-25.6-25.6-25.6h-435.2c-14.138 0-25.6 11.462-25.6 25.6s11.462 25.6 25.6 25.6h409.6v665.6h-409.6c-14.138 0-25.6 11.462-25.6 25.6s11.462 25.6 25.6 25.6z" />
<glyph unicode="&#xe908;" glyph-name="signout-l" d="M854.221 462.541l-225.28 225.28c-3.558 3.061-8.222 4.925-13.321 4.925-11.311 0-20.48-9.169-20.48-20.48 0-5.099 1.864-9.764 4.947-13.348l190.237-190.437h-442.163c-11.311 0-20.48-9.169-20.48-20.48s9.169-20.48 20.48-20.48h442.163l-190.259-190.259c-4.393-3.779-7.159-9.344-7.159-15.555 0-11.311 9.169-20.48 20.48-20.48 6.211 0 11.777 2.765 15.533 7.132l225.303 225.307c3.68 3.702 5.955 8.804 5.955 14.438s-2.275 10.737-5.956 14.439zM675.84 58.88h-491.52c-11.311 0-20.48 9.169-20.48 20.48v737.28c0 11.311 9.169 20.48 20.48 20.48h491.52c11.311 0 20.48-9.169 20.48-20.48s-9.169-20.48-20.48-20.48h-471.040v-696.32h471.040c11.311 0 20.48-9.169 20.48-20.48s-9.169-20.48-20.48-20.48z" />
<glyph unicode="&#xe909;" glyph-name="signout-s" d="M837.376 466.176l-204.8 204.8c-4.447 3.826-10.277 6.156-16.652 6.156-14.138 0-25.6-11.462-25.6-25.6 0-6.374 2.33-12.204 6.184-16.685l160.996-161.246h-373.504c-14.138 0-25.6-11.462-25.6-25.6s11.462-25.6 25.6-25.6h373.504l-161.024-161.024c-5.492-4.723-8.948-11.68-8.948-19.444 0-14.138 11.462-25.6 25.6-25.6 7.764 0 14.721 3.456 19.416 8.915l204.828 204.834c4.601 4.627 7.444 11.006 7.444 18.048s-2.844 13.421-7.445 18.049zM640 64h-435.2c-14.138 0-25.6 11.462-25.6 25.6v716.8c0 14.138 11.462 25.6 25.6 25.6h435.2c14.138 0 25.6-11.462 25.6-25.6s-11.462-25.6-25.6-25.6h-409.6v-665.6h409.6c14.138 0 25.6-11.462 25.6-25.6s-11.462-25.6-25.6-25.6z" />
<glyph unicode="&#xe90a;" glyph-name="trash-" d="M742.4 678.4h-460.8c-41.984 0-76.8-21.504-76.8-63.488v-435.2c0-71.168 57.344-115.712 128-115.712h358.4c70.4 0 128 44.544 128 114.944v435.2c0 42.752-34.048 64.256-76.8 64.256zM768 178.944c0-42.24-34.304-63.744-76.8-63.744h-358.4c-42.24 0-76.8 21.504-76.8 63.744v435.2c0 13.824 11.264 12.288 25.6 12.288h460.8c13.824 0 25.6 1.28 25.6-12.288v-435.2zM256 704h512c14.138 0 25.6 11.462 25.6 25.6s-11.462 25.6-25.6 25.6h-102.4v51.2c0 14.138-11.462 25.6-25.6 25.6h-256c-14.138 0-25.6-11.462-25.6-25.6v-51.2h-102.4c-14.138 0-25.6-11.462-25.6-25.6s11.462-25.6 25.6-25.6zM409.6 780.8h204.8v-25.6h-204.8v25.6zM512 550.4c-14.138 0-25.6-11.462-25.6-25.6v-332.8c0-14.138 11.462-25.6 25.6-25.6s25.6 11.462 25.6 25.6v332.8c0 14.138-11.462 25.6-25.6 25.6zM384 550.4c-14.138 0-25.6-11.462-25.6-25.6v-332.8c0-14.138 11.462-25.6 25.6-25.6s25.6 11.462 25.6 25.6v332.8c0 14.138-11.462 25.6-25.6 25.6zM640 550.4c-14.138 0-25.6-11.462-25.6-25.6v-332.8c0-14.138 11.462-25.6 25.6-25.6s25.6 11.462 25.6 25.6v332.8c0 14.138-11.462 25.6-25.6 25.6z" />
<glyph unicode="&#xe90b;" glyph-name="undo-l" d="M430.080 714.24h-94.003l87.859 87.859c3.061 3.558 4.925 8.222 4.925 13.321 0 11.311-9.169 20.48-20.48 20.48-5.099 0-9.764-1.864-13.348-4.947l-122.853-122.857c-3.68-3.702-5.955-8.804-5.955-14.438s2.275-10.737 5.956-14.439l122.879-122.879c3.558-3.061 8.222-4.925 13.321-4.925 11.311 0 20.48 9.169 20.48 20.48 0 5.099-1.864 9.764-4.947 13.348l-87.837 88.037h94.003c158.351 0 286.72-128.369 286.72-286.72s-128.369-286.72-286.72-286.72h-51.2c-11.311 0-20.48-9.169-20.48-20.48s9.169-20.48 20.48-20.48h51.2c180.973 0 327.68 146.707 327.68 327.68s-146.707 327.68-327.68 327.68z" />
<glyph unicode="&#xe90c;" glyph-name="undo-s" d="M435.2 755.2h-91.904l84.224 84.224c3.826 4.447 6.156 10.277 6.156 16.652 0 14.138-11.462 25.6-25.6 25.6-6.374 0-12.204-2.33-16.685-6.184l-127.966-127.972c-4.601-4.627-7.444-11.006-7.444-18.048s2.844-13.421 7.445-18.049l127.999-127.999c4.447-3.826 10.277-6.156 16.652-6.156 14.138 0 25.6 11.462 25.6 25.6 0 6.374-2.33 12.204-6.184 16.685l-84.196 84.446h91.904c155.523 0 281.6-126.077 281.6-281.6s-126.077-281.6-281.6-281.6h-51.2c-14.138 0-25.6-11.462-25.6-25.6s11.462-25.6 25.6-25.6h51.2c183.8 0 332.8 149 332.8 332.8s-149 332.8-332.8 332.8z" />
<glyph unicode="&#xe90d;" glyph-name="up-l" d="M798.72 284.16c-0.035 0-0.077 0-0.118 0-5.626 0-10.722 2.269-14.424 5.941l-272.178 272.383-272.179-272.384c-3.558-3.061-8.222-4.925-13.321-4.925-11.311 0-20.48 9.169-20.48 20.48 0 5.099 1.864 9.764 4.947 13.348l286.697 286.693c3.702 3.68 8.804 5.955 14.438 5.955s10.737-2.275 14.439-5.956l286.719-286.719c3.62-3.691 5.855-8.753 5.855-14.336 0-11.281-9.121-20.432-20.391-20.48z" />
<glyph unicode="&#xe90e;" glyph-name="up-s" d="M768 294.4c-0.044 0-0.096 0-0.148 0-7.033 0-13.403 2.836-18.030 7.426l-237.822 238.078-237.824-237.824c-4.447-3.826-10.277-6.156-16.652-6.156-14.138 0-25.6 11.462-25.6 25.6 0 6.374 2.33 12.204 6.184 16.685l255.972 255.966c4.627 4.601 11.006 7.444 18.048 7.444s13.421-2.844 18.049-7.445l255.999-255.999c4.677-4.64 7.573-11.070 7.573-18.176 0-14.138-11.462-25.6-25.6-25.6-0.052 0-0.105 0-0.157 0z" />
<glyph unicode="&#xe90f;" glyph-name="user" d="M921.6 17.92c-11.311 0-20.48 9.169-20.48 20.48 0 101.797-82.523 184.32-184.32 184.32h-409.6c-101.797 0-184.32-82.523-184.32-184.32 0-11.311-9.169-20.48-20.48-20.48s-20.48 9.169-20.48 20.48c0 124.419 100.861 225.28 225.28 225.28h409.6c124.419 0 225.28-100.861 225.28-225.28 0-11.311-9.169-20.48-20.48-20.48zM512 366.080c-135.73 0-245.76 110.030-245.76 245.76s110.030 245.76 245.76 245.76c135.73 0 245.76-110.030 245.76-245.76s-110.030-245.76-245.76-245.76zM512 816.64c-113.108 0-204.8-91.692-204.8-204.8s91.692-204.8 204.8-204.8c113.108 0 204.8 91.692 204.8 204.8s-91.692 204.8-204.8 204.8z" />
<glyph unicode="&#xe910;" glyph-name="warning-l" d="M512-33.28c-260.148 0-471.040 210.892-471.040 471.040s210.892 471.040 471.040 471.040c260.148 0 471.040-210.892 471.040-471.040s-210.892-471.040-471.040-471.040zM512 867.84c-237.527 0-430.080-192.553-430.080-430.080s192.553-430.080 430.080-430.080c237.527 0 430.080 192.553 430.080 430.080s-192.553 430.080-430.080 430.080zM512 314.88c-11.311 0-20.48 9.169-20.48 20.48v368.64c0 11.311 9.169 20.48 20.48 20.48s20.48-9.169 20.48-20.48v-368.64c0-11.311-9.169-20.48-20.48-20.48zM512 151.040c-22.622 0-40.96 18.338-40.96 40.96s18.338 40.96 40.96 40.96c22.622 0 40.96-18.338 40.96-40.96s-18.338-40.96-40.96-40.96zM512 192v0z" />
<glyph unicode="&#xe911;" glyph-name="write-l" d="M915.661 779.981l-81.92 81.92c-3.702 3.68-8.804 5.955-14.438 5.955s-10.737-2.275-14.439-5.956l-491.519-491.519c-3.671-3.7-5.94-8.796-5.94-14.422 0-0.042 0-0.083 0-0.125v-81.914c0-11.264 9.216-30.72 20.48-30.72h81.92c6.057 2.071 11.050 5.939 14.478 10.961l491.583 496.738c3.681 3.702 5.956 8.805 5.956 14.439 0 5.736-2.358 10.921-6.157 14.639zM401.203 284.16h-53.043v63.283l390.144 387.277 54.886-54.886zM822.067 709.734l-54.682 54.477 51.814 52.429 53.043-55.501zM901.12 38.4h-778.24c-11.311 0-20.48 9.169-20.48 20.48v778.24c0 11.311 9.169 20.48 20.48 20.48h491.52c11.311 0 20.48-9.169 20.48-20.48s-9.169-20.48-20.48-20.48h-471.040v-737.28h737.28v491.52c0 11.311 9.169 20.48 20.48 20.48s20.48-9.169 20.48-20.48v-512c0-11.311-9.169-20.48-20.48-20.48z" />
<glyph unicode="&#xe912;" glyph-name="addcircle-s" d="M512 64c-212.077 0-384 171.923-384 384s171.923 384 384 384c212.077 0 384-171.923 384-384s-171.923-384-384-384zM512 780.8c-183.8 0-332.8-149-332.8-332.8s149-332.8 332.8-332.8c183.8 0 332.8 149 332.8 332.8s-149 332.8-332.8 332.8zM716.8 473.6h-179.2v179.2c0 14.138-11.462 25.6-25.6 25.6s-25.6-11.462-25.6-25.6v-179.2h-179.2c-14.138 0-25.6-11.462-25.6-25.6s11.462-25.6 25.6-25.6h179.2v-179.2c0-14.138 11.462-25.6 25.6-25.6s25.6 11.462 25.6 25.6v179.2h179.2c14.138 0 25.6 11.462 25.6 25.6s-11.462 25.6-25.6 25.6z" />
<glyph unicode="&#xe913;" glyph-name="adduser" horiz-adv-x="1280" d="M1249.293 17.92c-11.311 0-20.48 9.169-20.48 20.48 0 101.797-82.523 184.32-184.32 184.32h-409.6c-101.797 0-184.32-82.523-184.32-184.32 0-11.311-9.169-20.48-20.48-20.48s-20.48 9.169-20.48 20.48c0 124.419 100.861 225.28 225.28 225.28h409.6c124.419 0 225.28-100.861 225.28-225.28 0-11.311-9.169-20.48-20.48-20.48zM839.693 366.080c-135.73 0-245.76 110.030-245.76 245.76s110.030 245.76 245.76 245.76c135.73 0 245.76-110.030 245.76-245.76s-110.030-245.76-245.76-245.76zM839.693 816.64c-113.108 0-204.8-91.692-204.8-204.8s91.692-204.8 204.8-204.8c113.108 0 204.8 91.692 204.8 204.8s-91.692 204.8-204.8 204.8zM430.093 468.48h-184.32v184.32c0 11.311-9.169 20.48-20.48 20.48s-20.48-9.169-20.48-20.48v-184.32h-184.32c-11.311 0-20.48-9.169-20.48-20.48s9.169-20.48 20.48-20.48h184.32v-184.32c0-11.311 9.169-20.48 20.48-20.48s20.48 9.169 20.48 20.48v184.32h184.32c11.311 0 20.48 9.169 20.48 20.48s-9.169 20.48-20.48 20.48z" />
<glyph unicode="&#xe914;" glyph-name="archive-l" d="M655.36 284.16h-286.72c-11.311 0-20.48 9.169-20.48 20.48s9.169 20.48 20.48 20.48h286.72c11.311 0 20.48-9.169 20.48-20.48s-9.169-20.48-20.48-20.48zM901.12 570.88h-81.92v153.6c0 11.264-9.216 10.24-20.48 10.24h-573.44c-11.264 0-20.48 1.024-20.48-10.24v-153.6h-81.92c-11.311 0-20.48-9.169-20.48-20.48v-430.080c0-11.311 9.169-20.48 20.48-20.48h778.24c11.311 0 20.48 9.169 20.48 20.48v430.080c0 11.311-9.169 20.48-20.48 20.48zM245.76 693.76h532.48v-122.88h-122.88c-0.042 0-0.092 0-0.141 0-3.713 0-7.195-0.988-10.198-2.716l-133.021-76.133-133.12 76.186c-2.903 1.675-6.386 2.663-10.099 2.663-0.050 0-0.099 0-0.149-0.001h-122.872v122.88zM880.64 140.8h-737.28v389.12h219.75l138.65-79.258c2.937-1.725 6.47-2.744 10.24-2.744s7.303 1.019 10.337 2.796l138.553 79.205h219.75v-389.12z" />
<glyph unicode="&#xe915;" glyph-name="archive-s" d="M870.4 576h-76.8v128c0 14.138-11.462 25.6-25.6 25.6h-512c-14.138 0-25.6-11.462-25.6-25.6v-128h-76.8c-14.138 0-25.6-11.462-25.6-25.6v-384c0-14.138 11.462-25.6 25.6-25.6h716.8c14.138 0 25.6 11.462 25.6 25.6v384c0 14.138-11.462 25.6-25.6 25.6zM281.6 678.4h460.8v-102.4h-102.4c-4.818-0.001-9.324-1.333-13.172-3.648l-114.828-68.8-114.944 68.864c-3.732 2.251-8.238 3.583-13.056 3.584h-102.4v102.4zM844.8 192h-665.6v332.8h197.632l121.856-73.216c3.672-2.156 8.087-3.43 12.8-3.43s9.128 1.274 12.921 3.495l122.759 73.151h197.632v-332.8zM384 371.2c-14.138 0-25.6-11.462-25.6-25.6s11.462-25.6 25.6-25.6h256c14.138 0 25.6 11.462 25.6 25.6s-11.462 25.6-25.6 25.6h-256z" />
<glyph unicode="&#xe916;" glyph-name="arrowdown-l" d="M915.661 462.541c-3.702 3.68-8.804 5.955-14.438 5.955s-10.737-2.275-14.439-5.956l-354.303-354.303v728.883c0 11.311-9.169 20.48-20.48 20.48s-20.48-9.169-20.48-20.48v-728.883l-354.099 354.304c-3.558 3.061-8.222 4.925-13.321 4.925-11.311 0-20.48-9.169-20.48-20.48 0-5.099 1.864-9.764 4.947-13.348l389.097-389.093c3.702-3.68 8.804-5.955 14.438-5.955s10.737 2.275 14.439 5.956l389.119 389.119c3.68 3.702 5.955 8.804 5.955 14.438s-2.275 10.737-5.956 14.439z" />
<glyph unicode="&#xe917;" glyph-name="arrowleft-l" d="M901.12 448h-728.883l354.304 354.099c3.061 3.558 4.925 8.222 4.925 13.321 0 11.311-9.169 20.48-20.48 20.48-5.099 0-9.764-1.864-13.348-4.947l-389.093-389.097c-3.68-3.702-5.955-8.804-5.955-14.438s2.275-10.737 5.956-14.439l389.119-389.119c3.558-3.061 8.222-4.925 13.321-4.925 11.311 0 20.48 9.169 20.48 20.48 0 5.099-1.864 9.764-4.947 13.348l-354.281 354.277h728.883c11.311 0 20.48 9.169 20.48 20.48s-9.169 20.48-20.48 20.48z" />
<glyph unicode="&#xe918;" glyph-name="arrowright-l" d="M915.661 442.061l-389.12 389.12c-3.558 3.061-8.222 4.925-13.321 4.925-11.311 0-20.48-9.169-20.48-20.48 0-5.099 1.864-9.764 4.947-13.348l354.077-354.277h-728.883c-11.311 0-20.48-9.169-20.48-20.48s9.169-20.48 20.48-20.48h728.883l-354.304-354.099c-4.393-3.779-7.159-9.344-7.159-15.555 0-11.311 9.169-20.48 20.48-20.48 6.211 0 11.777 2.765 15.533 7.132l389.143 389.147c3.742 3.712 6.059 8.856 6.059 14.541 0 5.583-2.234 10.644-5.857 14.339z" />
<glyph unicode="&#xe919;" glyph-name="arrowup-l" d="M915.661 462.541l-389.12 389.12c-3.702 3.68-8.804 5.955-14.438 5.955s-10.737-2.275-14.439-5.956l-389.119-389.119c-3.061-3.558-4.925-8.222-4.925-13.321 0-11.311 9.169-20.48 20.48-20.48 5.099 0 9.764 1.864 13.348 4.947l354.072 354.077v-728.883c0-11.311 9.169-20.48 20.48-20.48s20.48 9.169 20.48 20.48v728.883l354.099-354.304c3.721-3.721 8.862-6.023 14.541-6.023 11.357 0 20.564 9.207 20.564 20.564 0 5.679-2.302 10.819-6.023 14.541z" />
<glyph unicode="&#xe91a;" glyph-name="attach-l" d="M362.701 66.458c-51.803 0.17-98.603 21.449-132.276 55.68-33.386 31.276-55.53 74.147-59.975 122.15-0.113 2.456-0.145 4.455-0.145 6.461 0 53.798 23.203 102.176 60.146 135.674l284.007 283.99c24.546 24.346 57.98 39.762 95.007 40.954 1.718 0.064 3.471 0.097 5.231 0.097 75.782 0 137.216-61.434 137.216-137.216 0-1.761-0.033-3.514-0.099-5.258-1.19-37.001-16.607-70.435-40.962-94.99l-280.771-283.024-28.877 28.877 281.6 282.419c16.885 17.481 27.473 41.139 28.056 67.267 0.049 1.234 0.075 2.55 0.075 3.872 0 53.161-43.095 96.256-96.256 96.256-1.322 0-2.638-0.027-3.948-0.079-26.052-0.578-49.711-11.166-67.22-28.079l-284.029-284.030c-29.591-26.102-48.158-64.106-48.158-106.447 0-1.026 0.011-2.049 0.033-3.069 3.735-38.523 21.481-72.465 48.026-97.037 26.359-26.846 62.902-43.429 103.319-43.429s76.96 16.583 103.197 43.316l271.382 270.973c40.277 37.033 67.721 87.468 75.235 144.194 0.374 4.721 0.512 8.815 0.512 12.941 0 52.876-22.668 100.458-58.817 133.558-90.043 90.030-214.357 59.72-290.747-16.671l-209.92-209.715-28.262 29.082 208.896 209.51c90.726 90.726 239.616 125.747 348.16 16.794 43.721-40.461 71.001-98.145 71.001-162.201 0-5.477-0.199-10.908-0.592-16.285-8.424-67.231-40.257-126.512-87.026-169.922l-270.717-271.112c-33.725-34.181-80.525-55.389-132.28-55.501z" />
<glyph unicode="&#xe91b;" glyph-name="calendar-s" d="M793.6 704h-51.2v89.6c0 14.138-11.462 25.6-25.6 25.6s-25.6-11.462-25.6-25.6v-89.6h-358.4v89.6c0 14.138-11.462 25.6-25.6 25.6s-25.6-11.462-25.6-25.6v-89.6h-51.2c-56.554 0-102.4-45.846-102.4-102.4v-435.2c0-56.554 45.846-102.4 102.4-102.4h563.2c56.554 0 102.4 45.846 102.4 102.4v435.2c0 56.554-45.846 102.4-102.4 102.4zM844.8 166.4c0-28.277-22.923-51.2-51.2-51.2h-563.2c-28.277 0-51.2 22.923-51.2 51.2v435.2c0 28.277 22.923 51.2 51.2 51.2h51.2v-64c0-14.138 11.462-25.6 25.6-25.6s25.6 11.462 25.6 25.6v64h358.4v-64c0-14.138 11.462-25.6 25.6-25.6s25.6 11.462 25.6 25.6v64h51.2c28.277 0 51.2-22.923 51.2-51.2v-435.2zM332.8 499.2h51.2c14.138 0 25.6-11.462 25.6-25.6v-51.2c0-14.138-11.462-25.6-25.6-25.6h-51.2c-14.138 0-25.6 11.462-25.6 25.6v51.2c0 14.138 11.462 25.6 25.6 25.6zM486.4 499.2h51.2c14.138 0 25.6-11.462 25.6-25.6v-51.2c0-14.138-11.462-25.6-25.6-25.6h-51.2c-14.138 0-25.6 11.462-25.6 25.6v51.2c0 14.138 11.462 25.6 25.6 25.6zM640 499.2h51.2c14.138 0 25.6-11.462 25.6-25.6v-51.2c0-14.138-11.462-25.6-25.6-25.6h-51.2c-14.138 0-25.6 11.462-25.6 25.6v51.2c0 14.138 11.462 25.6 25.6 25.6zM332.8 345.6h51.2c14.138 0 25.6-11.462 25.6-25.6v-51.2c0-14.138-11.462-25.6-25.6-25.6h-51.2c-14.138 0-25.6 11.462-25.6 25.6v51.2c0 14.138 11.462 25.6 25.6 25.6zM486.4 345.6h51.2c14.138 0 25.6-11.462 25.6-25.6v-51.2c0-14.138-11.462-25.6-25.6-25.6h-51.2c-14.138 0-25.6 11.462-25.6 25.6v51.2c0 14.138 11.462 25.6 25.6 25.6z" />
<glyph unicode="&#xe91c;" glyph-name="clock-s" d="M512 780.8c183.8 0 332.8-149 332.8-332.8s-149-332.8-332.8-332.8c-183.8 0-332.8 149-332.8 332.8s149 332.8 332.8 332.8zM512 832c-212.077 0-384-171.923-384-384s171.923-384 384-384c212.077 0 384 171.923 384 384s-171.923 384-384 384v0zM665.6 307.2c-4.21 0.026-8.172 1.064-11.662 2.883l-153.458 76.733c-8.395 4.298-14.049 12.877-14.080 22.78v230.404c0 14.138 11.462 25.6 25.6 25.6s25.6-11.462 25.6-25.6v-214.528l139.52-69.632c8.62-4.242 14.447-12.962 14.447-23.043 0-14.138-11.462-25.6-25.6-25.6-0.129 0-0.258 0.001-0.386 0.003z" />
<glyph unicode="&#xe91d;" glyph-name="close-l" d="M880.64 48.64c-0.035 0-0.077 0-0.118 0-5.626 0-10.722 2.269-14.424 5.941l-737.279 737.279c-3.721 3.721-6.023 8.862-6.023 14.541 0 11.357 9.207 20.564 20.564 20.564 5.679 0 10.819-2.302 14.541-6.023l737.28-737.28c3.742-3.712 6.058-8.856 6.058-14.541 0-11.311-9.169-20.48-20.48-20.48-0.042 0-0.084 0-0.126 0zM143.36 48.64c-0.035 0-0.077 0-0.119 0-11.311 0-20.48 9.169-20.48 20.48 0 5.685 2.316 10.829 6.057 14.54l737.281 737.281c3.558 3.061 8.222 4.925 13.321 4.925 11.311 0 20.48-9.169 20.48-20.48 0-5.099-1.864-9.764-4.947-13.348l-737.257-737.253c-3.654-3.726-8.714-6.061-14.321-6.144z" />
<glyph unicode="&#xe91e;" glyph-name="close-s" d="M548.096 448l289.28 289.024c3.826 4.447 6.156 10.277 6.156 16.652 0 14.138-11.462 25.6-25.6 25.6-6.374 0-12.204-2.33-16.685-6.184l-289.246-288.996-289.024 289.28c-4.652 4.652-11.078 7.529-18.176 7.529-14.196 0-25.705-11.508-25.705-25.705 0-7.098 2.877-13.524 7.529-18.176l289.28-289.024-289.28-289.024c-5.492-4.723-8.948-11.68-8.948-19.444 0-14.138 11.462-25.6 25.6-25.6 7.764 0 14.721 3.456 19.416 8.915l289.308 289.058 289.024-289.28c4.447-3.826 10.277-6.156 16.652-6.156 14.138 0 25.6 11.462 25.6 25.6 0 6.374-2.33 12.204-6.184 16.685z" />
<glyph unicode="&#xe91f;" glyph-name="deletecircle-s" d="M512 64c-212.077 0-384 171.923-384 384s171.923 384 384 384c212.077 0 384-171.923 384-384s-171.923-384-384-384zM512 780.8c-183.8 0-332.8-149-332.8-332.8s149-332.8 332.8-332.8c183.8 0 332.8 149 332.8 332.8s-149 332.8-332.8 332.8zM548.096 448l109.824 109.824c3.826 4.447 6.156 10.277 6.156 16.652 0 14.138-11.462 25.6-25.6 25.6-6.374 0-12.204-2.33-16.685-6.184l-109.79-109.796-109.824 109.824c-4.447 3.826-10.277 6.156-16.652 6.156-14.138 0-25.6-11.462-25.6-25.6 0-6.374 2.33-12.204 6.184-16.685l109.796-109.79-109.824-109.824c-5.492-4.723-8.948-11.68-8.948-19.444 0-14.138 11.462-25.6 25.6-25.6 7.764 0 14.721 3.456 19.416 8.915l109.852 109.858 109.824-109.824c4.447-3.826 10.277-6.156 16.652-6.156 14.138 0 25.6 11.462 25.6 25.6 0 6.374-2.33 12.204-6.184 16.685z" />
<glyph unicode="&#xe920;" glyph-name="donechich" d="M409.6 243.2c-0.044 0-0.096 0-0.148 0-7.033 0-13.403 2.836-18.030 7.426l-127.998 127.998c-3.826 4.447-6.156 10.277-6.156 16.652 0 14.138 11.462 25.6 25.6 25.6 6.374 0 12.204-2.33 16.685-6.184l110.046-109.796 314.624 314.88c4.447 3.826 10.277 6.156 16.652 6.156 14.138 0 25.6-11.462 25.6-25.6 0-6.374-2.33-12.204-6.184-16.685l-332.772-332.766c-4.567-4.658-10.893-7.577-17.901-7.68z" />
<glyph unicode="&#xe921;" glyph-name="donecircle-l" d="M512-33.28c-260.148 0-471.040 210.892-471.040 471.040s210.892 471.040 471.040 471.040c260.148 0 471.040-210.892 471.040-471.040s-210.892-471.040-471.040-471.040zM512 867.84c-237.527 0-430.080-192.553-430.080-430.080s192.553-430.080 430.080-430.080c237.527 0 430.080 192.553 430.080 430.080s-192.553 430.080-430.080 430.080zM450.56 273.92c-0.035 0-0.077 0-0.118 0-5.626 0-10.722 2.269-14.424 5.941l-143.359 143.359c-3.061 3.558-4.925 8.222-4.925 13.321 0 11.311 9.169 20.48 20.48 20.48 5.099 0 9.764-1.864 13.348-4.947l128.997-128.797 272.179 272.384c3.558 3.061 8.222 4.925 13.321 4.925 11.311 0 20.48-9.169 20.48-20.48 0-5.099-1.864-9.764-4.947-13.348l-286.697-286.693c-3.654-3.726-8.714-6.061-14.321-6.144z" />
<glyph unicode="&#xe922;" glyph-name="done-l" d="M389.12 99.84c-6.057 2.071-11.050 5.939-14.478 10.961l-266.303 268.796c-3.721 3.949-6.008 9.285-6.008 15.155s2.287 11.207 6.018 15.166c3.691 3.669 8.794 5.944 14.428 5.944s10.737-2.275 14.439-5.956l250.469-248.626 497.664 596.582c3.766 5.151 9.787 8.459 16.581 8.459 11.311 0 20.48-9.169 20.48-20.48 0-5.414-2.101-10.338-5.532-14l-511.99-619.509c-3.495-5.95-9.006-10.396-15.575-12.441l-0.194-0.052z" />
<glyph unicode="&#xe923;" glyph-name="down-l" d="M512 273.92c-0.035 0-0.077 0-0.118 0-5.626 0-10.722 2.269-14.424 5.941l-286.719 286.719c-3.061 3.558-4.925 8.222-4.925 13.321 0 11.311 9.169 20.48 20.48 20.48 5.099 0 9.764-1.864 13.348-4.947l272.357-272.157 272.179 272.384c3.558 3.061 8.222 4.925 13.321 4.925 11.311 0 20.48-9.169 20.48-20.48 0-5.099-1.864-9.764-4.947-13.348l-286.697-286.693c-3.654-3.726-8.714-6.061-14.321-6.144z" />
<glyph unicode="&#xe924;" glyph-name="down-s" d="M512 294.4c-0.044 0-0.096 0-0.148 0-7.033 0-13.403 2.836-18.030 7.426l-255.998 255.998c-3.826 4.447-6.156 10.277-6.156 16.652 0 14.138 11.462 25.6 25.6 25.6 6.374 0 12.204-2.33 16.685-6.184l238.046-237.796 237.824 237.824c4.447 3.826 10.277 6.156 16.652 6.156 14.138 0 25.6-11.462 25.6-25.6 0-6.374-2.33-12.204-6.184-16.685l-255.972-255.966c-4.6-4.564-10.927-7.394-17.914-7.424z" />
<glyph unicode="&#xe925;" glyph-name="edit-l" d="M915.661 739.021l-102.4 102.4c-3.702 3.68-8.804 5.955-14.438 5.955s-10.737-2.275-14.439-5.956l-675.839-675.839c-3.773-3.701-6.12-8.844-6.144-14.536v-102.405c0-11.264 9.216-30.72 20.48-30.72h102.4c6.057 2.071 11.050 5.939 14.478 10.961l675.903 681.058c3.742 3.712 6.058 8.856 6.058 14.541s-2.316 10.829-6.057 14.539zM216.883 58.88h-73.523v83.763l553.984 551.117 75.366-75.366zM801.587 648.294l-75.162 75.162 72.294 72.704 73.523-75.981z" />
<glyph unicode="&#xe926;" glyph-name="edit-m" d="M888.576 747.776l-102.4 102.4c-4.627 4.601-11.006 7.444-18.048 7.444s-13.421-2.844-18.049-7.445l-614.399-614.399c-4.717-4.626-7.649-11.055-7.68-18.17v-102.406c0-14.138 11.462-25.6 25.6-25.6h102.4c0.044 0 0.096 0 0.148 0 7.033 0 13.403 2.836 18.030 7.426l614.398 614.398c4.677 4.64 7.572 11.070 7.572 18.176s-2.895 13.536-7.571 18.174zM245.504 140.8h-66.304v66.304l486.4 486.4 66.304-66.304zM768 663.296l-66.304 66.304 66.304 66.304 66.304-66.304z" />
<glyph unicode="&#xe927;" glyph-name="edit-s" d="M811.776 670.976l-102.4 102.4c-4.627 4.601-11.006 7.444-18.048 7.444s-13.421-2.844-18.049-7.445l-460.799-460.799c-4.717-4.626-7.649-11.055-7.68-18.17v-102.406c0-14.138 11.462-25.6 25.6-25.6h102.4c0.044 0 0.096 0 0.148 0 7.033 0 13.403 2.836 18.030 7.426l460.798 460.798c4.677 4.64 7.572 11.070 7.572 18.176s-2.895 13.536-7.571 18.174zM322.304 217.6h-66.304v66.304l332.8 332.8 66.304-66.304zM691.2 586.496l-66.304 66.304 66.304 66.304 66.304-66.304z" />
<glyph unicode="&#xe928;" glyph-name="eye-l" d="M512 192c-109.249 1.912-210.733 33.514-297.21 87.049-81.056 49.348-132.87 110.788-132.87 158.711 0 92.365 208.282 245.76 430.080 245.76 213.402 0 430.080-143.36 430.080-245.76s-216.678-245.76-430.080-245.76zM512 642.56c-204.8 0-389.12-139.059-389.12-204.8s184.32-204.8 389.12-204.8 389.12 139.059 389.12 204.8-184.32 204.8-389.12 204.8zM512 280.678c-86.754 0-157.082 70.328-157.082 157.082s70.328 157.082 157.082 157.082c86.754 0 157.082-70.328 157.082-157.082s-70.328-157.082-157.082-157.082c-86.754 0-157.082 70.328-157.082 157.082s70.328 157.082 157.082 157.082c86.754 0 157.082-70.328 157.082-157.082s-70.328-157.082-157.082-157.082zM512 553.677c-64.132 0-116.122-51.989-116.122-116.122s51.989-116.122 116.122-116.122c64.132 0 116.122 51.989 116.122 116.122 0 0.061 0 0.133 0 0.205 0 64.132-51.989 116.122-116.122 116.122 0 0 0 0 0 0z" />
<glyph unicode="&#xe929;" glyph-name="eye-s" d="M512 217.6c-204.8 0-409.6 157.952-409.6 230.4s204.8 230.4 409.6 230.4 409.6-157.952 409.6-230.4-204.8-230.4-409.6-230.4zM512 627.2c-184.32 0-353.792-144.384-358.4-179.2 4.608-34.304 174.080-179.2 358.4-179.2s354.304 143.616 358.4 179.2c-4.096 35.584-171.008 179.2-358.4 179.2zM896 448v0zM896 448v0zM512 320c-70.692 0-128 57.308-128 128s57.308 128 128 128c70.692 0 128-57.308 128-128s-57.308-128-128-128zM512 524.8c-42.415 0-76.8-34.385-76.8-76.8s34.385-76.8 76.8-76.8c42.415 0 76.8 34.385 76.8 76.8s-34.385 76.8-76.8 76.8z" />
<glyph unicode="&#xe92a;" glyph-name="filledeye-l" d="M512 629.658c-169.574 0-307.2-116.326-307.2-192.102 0-79.258 137.626-192.102 307.2-192.102s307.2 114.074 307.2 191.898-137.626 192.307-307.2 192.307zM512 301.978c-75.443 0-136.602 61.159-136.602 136.602s61.159 136.602 136.602 136.602c75.443 0 136.602-61.159 136.602-136.602 0.002-0.243 0.002-0.531 0.002-0.819 0-75.443-61.159-136.602-136.602-136.602-0.001 0-0.002 0-0.003 0zM563.2 437.76c-28.112 0.217-50.817 23.056-50.817 51.199 0 20.326 11.844 37.885 29.007 46.153-8.536 3.1-18.726 4.887-29.311 5.047-56.633 0.001-102.479-45.845-102.479-102.399s45.846-102.4 102.4-102.4c56.554 0 102.4 45.846 102.4 102.4-0.162 10.663-1.948 20.853-5.121 30.41-8.053-18.372-25.66-30.39-46.077-30.41z" />
<glyph unicode="&#xe92b;" glyph-name="flag-s" d="M307.2 123.648c-14.138 0-25.6 11.462-25.6 25.6v614.4c0 14.336 11.52 17.152 25.6 17.152h409.6c1.309 0.27 2.814 0.425 4.354 0.425 7.284 0 13.76-3.457 17.878-8.819 2.16-3.353 3.419-7.38 3.419-11.701s-1.26-8.349-3.432-11.735l-95.18-165.289 95.232-165.888c2.129-4.301 3.375-9.365 3.375-14.72s-1.246-10.419-3.463-14.918c-4.079-8.72-12.224-15.175-22.001-16.927l-384.183-0.027v-221.952c0-14.138-11.462-25.6-25.6-25.6zM332.8 422.4h339.968l-80.384 145.152c-2.12 3.299-3.38 7.326-3.38 11.648s1.26 8.349 3.432 11.735l80.332 138.665h-339.968v-307.2z" />
<glyph unicode="&#xe92c;" glyph-name="info-l" d="M512-23.040c-260.148 0-471.040 210.892-471.040 471.040s210.892 471.040 471.040 471.040c260.148 0 471.040-210.892 471.040-471.040s-210.892-471.040-471.040-471.040zM512 878.080c-237.527 0-430.080-192.553-430.080-430.080s192.553-430.080 430.080-430.080c237.527 0 430.080 192.553 430.080 430.080s-192.553 430.080-430.080 430.080zM512 161.28c-11.311 0-20.48 9.169-20.48 20.48v368.64c0 11.311 9.169 20.48 20.48 20.48s20.48-9.169 20.48-20.48v-368.64c0-11.311-9.169-20.48-20.48-20.48zM512 652.8c-22.622 0-40.96 18.338-40.96 40.96s18.338 40.96 40.96 40.96c22.622 0 40.96-18.338 40.96-40.96s-18.338-40.96-40.96-40.96zM512 693.76v0z" />
<glyph unicode="&#xe92d;" glyph-name="info-s" d="M512 64c-212.077 0-384 171.923-384 384s171.923 384 384 384c212.077 0 384-171.923 384-384s-171.923-384-384-384zM512 780.8c-183.8 0-332.8-149-332.8-332.8s149-332.8 332.8-332.8c183.8 0 332.8 149 332.8 332.8s-149 332.8-332.8 332.8zM512 204.8c-14.138 0-25.6 11.462-25.6 25.6v256c0 14.138 11.462 25.6 25.6 25.6s25.6-11.462 25.6-25.6v-256c0-14.138-11.462-25.6-25.6-25.6zM512 576c-28.277 0-51.2 22.923-51.2 51.2s22.923 51.2 51.2 51.2c28.277 0 51.2-22.923 51.2-51.2s-22.923-51.2-51.2-51.2zM512 627.2v0z" />
<glyph unicode="&#xe92e;" glyph-name="left-l" d="M675.84 89.6c-0.035 0-0.077 0-0.118 0-5.626 0-10.722 2.269-14.424 5.941l-327.679 327.679c-3.68 3.702-5.955 8.804-5.955 14.438s2.275 10.737 5.956 14.439l327.679 327.679c3.558 3.061 8.222 4.925 13.321 4.925 11.311 0 20.48-9.169 20.48-20.48 0-5.099-1.864-9.764-4.947-13.348l-313.117-313.112 313.344-313.139c3.742-3.712 6.058-8.856 6.058-14.541 0-11.311-9.169-20.48-20.48-20.48-0.042 0-0.084 0-0.126 0z" />
<glyph unicode="&#xe92f;" glyph-name="left-s" d="M640 166.4c-0.044 0-0.096 0-0.148 0-7.033 0-13.403 2.836-18.030 7.426l-255.998 255.998c-4.601 4.627-7.444 11.006-7.444 18.048s2.844 13.421 7.445 18.049l255.999 255.999c4.447 3.826 10.277 6.156 16.652 6.156 14.138 0 25.6-11.462 25.6-25.6 0-6.374-2.33-12.204-6.184-16.685l-237.796-237.79 237.824-237.824c4.677-4.64 7.573-11.070 7.573-18.176 0-14.101-11.4-25.539-25.487-25.6z" />
<glyph unicode="&#xe930;" glyph-name="location-s" d="M512 652.8c42.415 0 76.8-34.385 76.8-76.8s-34.385-76.8-76.8-76.8c-42.415 0-76.8 34.385-76.8 76.8s34.385 76.8 76.8 76.8zM512 704c-70.692 0-128-57.308-128-128s57.308-128 128-128c70.692 0 128 57.308 128 128s-57.308 128-128 128v0zM512 780.8c113.108 0 204.8-91.692 204.8-204.8 0-122.368-146.432-410.88-204.8-457.216-20.224 16.896-65.536 74.24-119.808 188.928-50.688 107.264-84.992 215.040-84.992 268.288 0 113.108 91.692 204.8 204.8 204.8zM512 832c-141.385 0-256-114.615-256-256 0-141.312 179.2-512 256-512s256 370.688 256 512c0 141.385-114.615 256-256 256v0z" />
<glyph unicode="&#xe931;" glyph-name="message-s" d="M303.872 76.288c-0.055 0-0.12-0.001-0.185-0.001-13.056 0-23.829 9.774-25.402 22.404l-19.213 164.989c-87.808 59.904-131.072 134.4-131.072 222.208 0 169.984 172.8 307.2 384 307.2s384-138.24 384-307.2-172.8-307.2-384-307.2c-19.456-1.536-116.48-51.2-195.072-98.048-3.674-2.511-8.157-4.102-12.994-4.349zM512 742.912c-184.064 0-332.8-115.2-332.8-256 0-72.704 39.936-135.168 118.784-185.856 6.245-4.080 10.557-10.672 11.507-18.307l16.397-138.365c62.208 35.328 156.672 85.504 187.136 85.504 184.064 0 332.8 115.2 332.8 256s-149.76 257.024-333.824 257.024z" />
<glyph unicode="&#xe932;" glyph-name="photo-l" d="M819.2 58.88h-614.4c-79.053 0-143.36 74.547-143.36 153.6v327.68c0 79.053 64.307 133.12 143.36 133.12h83.354c10.035 81.92 69.837 122.88 141.926 122.88h163.84c72.090 0 131.891-40.96 141.926-122.88h83.354c79.053 0 143.36-54.067 143.36-133.12v-327.68c0-79.053-64.307-153.6-143.36-153.6zM204.8 632.32c-56.525 0-102.4-35.635-102.4-92.16v-327.68c0-56.525 45.875-112.64 102.4-112.64h614.4c56.525 0 102.4 56.115 102.4 112.64v327.68c0 56.525-45.875 92.16-102.4 92.16h-102.4c-11.311 0-20.48 9.169-20.48 20.48 0 56.554-45.846 102.4-102.4 102.4h-163.84c-56.554 0-102.4-45.846-102.4-102.4 0-11.311-9.169-20.48-20.48-20.48h-102.4zM512 181.76c-124.419 0-225.28 100.861-225.28 225.28s100.861 225.28 225.28 225.28c124.419 0 225.28-100.861 225.28-225.28s-100.861-225.28-225.28-225.28zM512 591.36c-101.797 0-184.32-82.523-184.32-184.32s82.523-184.32 184.32-184.32c101.797 0 184.32 82.523 184.32 184.32s-82.523 184.32-184.32 184.32z" />
<glyph unicode="&#xe933;" glyph-name="photo-s" d="M784.64 115.2h-541.952c-76.032 0-140.288 87.040-140.288 159.744v289.024c0 73.216 66.816 114.432 140.288 114.432h67.584c13.312 76.8 68.864 102.4 131.072 102.4h144.64c62.208 0 117.76-25.6 131.072-102.4h67.584c72.96 0 136.96-39.936 136.96-114.432v-289.024c0-72.704-62.72-159.744-136.96-159.744zM242.688 627.2c-45.824 0-89.088-17.664-89.088-63.232v-289.024c0-44.288 41.728-108.544 89.088-108.544h541.952c46.592 0 85.76 63.488 85.76 108.544v289.024c0 46.592-40.96 63.232-85.76 63.232h-90.368c-14.138 0-25.6 11.462-25.6 25.6-3.905 42.885-39.444 76.292-82.893 76.8h-144.435c-43.5-0.508-79.039-33.915-82.92-76.472-0.024-14.467-11.486-25.928-25.624-25.928h-90.112zM513.536 241.92c-98.121 0-177.664 79.543-177.664 177.664s79.543 177.664 177.664 177.664c98.121 0 177.664-79.543 177.664-177.664 0-0.090 0-0.18 0-0.27-0.146-97.997-79.633-177.394-177.664-177.394 0 0 0 0 0 0zM513.536 545.792c-69.844 0-126.464-56.62-126.464-126.464s56.62-126.464 126.464-126.464c69.844 0 126.464 56.62 126.464 126.464s-56.62 126.464-126.464 126.464c0 0 0 0 0 0z" />
<glyph unicode="&#xe934;" glyph-name="pin-s" d="M768 576c-0.002 141.384-114.616 255.997-256 255.997s-256-114.615-256-256c0-132.369 100.463-241.273 229.302-254.625l1.098-244.572c0-14.138 11.462-25.6 25.6-25.6s25.6 11.462 25.6 25.6v244.48c129.937 13.443 230.4 122.348 230.4 254.717 0 0.001 0 0.002 0 0.003zM512 371.2c-113.108 0-204.8 91.692-204.8 204.8s91.692 204.8 204.8 204.8c113.108 0 204.8-91.692 204.8-204.8s-91.692-204.8-204.8-204.8z" />
<glyph unicode="&#xe935;" glyph-name="plus-l" d="M921.6 468.48h-389.12v389.12c0 11.311-9.169 20.48-20.48 20.48s-20.48-9.169-20.48-20.48v-389.12h-389.12c-11.311 0-20.48-9.169-20.48-20.48s9.169-20.48 20.48-20.48h389.12v-389.12c0-11.311 9.169-20.48 20.48-20.48s20.48 9.169 20.48 20.48v389.12h389.12c11.311 0 20.48 9.169 20.48 20.48s-9.169 20.48-20.48 20.48z" />
<glyph unicode="&#xe936;" glyph-name="plus-m" d="M896 473.6h-358.4v358.4c0 14.138-11.462 25.6-25.6 25.6s-25.6-11.462-25.6-25.6v-358.4h-358.4c-14.138 0-25.6-11.462-25.6-25.6s11.462-25.6 25.6-25.6h358.4v-358.4c0-14.138 11.462-25.6 25.6-25.6s25.6 11.462 25.6 25.6v358.4h358.4c14.138 0 25.6 11.462 25.6 25.6s-11.462 25.6-25.6 25.6z" />
<glyph unicode="&#xe937;" glyph-name="plus-s" d="M819.2 473.6h-281.6v281.6c0 14.138-11.462 25.6-25.6 25.6s-25.6-11.462-25.6-25.6v-281.6h-281.6c-14.138 0-25.6-11.462-25.6-25.6s11.462-25.6 25.6-25.6h281.6v-281.6c0-14.138 11.462-25.6 25.6-25.6s25.6 11.462 25.6 25.6v281.6h281.6c14.138 0 25.6 11.462 25.6 25.6s-11.462 25.6-25.6 25.6z" />
<glyph unicode="&#xe938;" glyph-name="research-s" d="M512 192c-14.138 0-25.6 11.462-25.6 25.6s11.462 25.6 25.6 25.6c113.108 0 204.8 91.692 204.8 204.8s-91.692 204.8-204.8 204.8c-14.138 0-25.6 11.462-25.6 25.6s11.462 25.6 25.6 25.6c141.385 0 256-114.615 256-256s-114.615-256-256-256zM768 89.6h-512c-14.138 0-25.6 11.462-25.6 25.6s11.462 25.6 25.6 25.6h512c14.138 0 25.6-11.462 25.6-25.6s-11.462-25.6-25.6-25.6zM512 192h-128c-14.138 0-25.6 11.462-25.6 25.6s11.462 25.6 25.6 25.6h128c14.138 0 25.6-11.462 25.6-25.6s-11.462-25.6-25.6-25.6zM435.2 422.4c-14.138 0-25.6 11.462-25.6 25.6v358.4c0 14.138 11.462 25.6 25.6 25.6s25.6-11.462 25.6-25.6v-358.4c0-14.138-11.462-25.6-25.6-25.6z" />
</font>
</defs>
</svg>
